#N canvas 827 239 527 327 12;
#X obj 118 86 tgl 25 0 stage/ambient/start stage/ambient/start empty 17 7 0 10 #e4e4e4 #4d4d4d #373737 0 1;
#X obj 113 152 metro 500;
#X obj 115 197 count 0 15;
#X obj 92 306 bng 25 250 50 0 empty empty empty 17 7 0 10 #e4e4e4 #4d4d4d #373737;
#X obj 526 446 bng 25 250 50 0 empty empty empty 17 7 0 10 #e4e4e4 #4d4d4d #373737;
#X obj 294 313 bng 25 250 50 0 empty empty empty 17 7 0 10 #e4e4e4 #4d4d4d #373737;
#X obj 115 246 select 7 9 14;
#X obj 85 429 mtof;
#X obj 80 477 osc~;
#X obj 71 675 throw~ stage/ambient/L;
#X obj 121 675 throw~ stage/ambient/R;
#X obj 87 392 + 20;
#X msg 223 371 0.8 3000 \, 0.1 2000 3000;
#X obj 233 494 vline~;
#X obj 147 599 *~;
#X obj 84 352 random 20;
#X obj 159 493 osc~;
#X obj 141 416 + 20;
#X obj 137 387 random 10;
#X obj 155 445 mtof;
#X obj 104 523 echo.rev~ 3 1;
#X obj 109 552 chorus~ 1 1 1;
#X obj 343 914 throw~ stage/ambient/L;
#X obj 393 914 throw~ stage/ambient/R;
#X obj 601 240 mtof;
#X obj 596 288 osc~;
#X obj 603 203 + 20;
#X obj 627 319 echo.rev~ 3 1;
#X msg 367 328 0.8 3000 \, 0.1 2000 3000;
#X obj 510 380 vline~;
#X obj 563 418 *~;
#X obj 695 382 throw~ stage/ambient/L;
#X obj 745 382 throw~ stage/ambient/R;
#X obj 612 349 lowpass~ 200;
#X obj 582 138 random 30;
#X obj 427 634 phasor;
#X obj 552 732 vline~;
#X obj 394 793 *~;
#X obj 444 557 mtof;
#X obj 375 827 overdrive~ 30;
#X obj 347 676 echo.rev~ 19 1;
#X obj 329 739 bandpass~ 200;
#X obj 442 525 random 24;
#X obj 482 593 + 60;
#X msg 581 620 0.9 5000 \, 0.1 10000 100000;
#X obj 50 120 r stage/ambient/start;
#X connect 0 0 1 0;
#X connect 1 0 2 0;
#X connect 2 0 6 0;
#X connect 3 0 12 0;
#X connect 3 0 15 0;
#X connect 3 0 18 0;
#X connect 4 0 44 0;
#X connect 4 0 42 0;
#X connect 5 0 28 0;
#X connect 5 0 34 0;
#X connect 6 0 3 0;
#X connect 6 1 5 0;
#X connect 6 2 4 0;
#X connect 7 0 8 0;
#X connect 8 0 20 0;
#X connect 10 0 7 0;
#X connect 12 0 13 0;
#X connect 13 0 14 1;
#X connect 14 0 9 0;
#X connect 14 0 10 0;
#X connect 15 0 10 0;
#X connect 16 0 20 0;
#X connect 17 0 19 0;
#X connect 18 0 17 0;
#X connect 19 0 16 0;
#X connect 20 0 21 0;
#X connect 21 0 14 0;
#X connect 23 0 25 0;
#X connect 25 0 27 0;
#X connect 26 0 23 0;
#X connect 27 0 32 0;
#X connect 28 0 29 0;
#X connect 29 0 30 1;
#X connect 30 0 31 0;
#X connect 30 0 32 0;
#X connect 32 0 30 0;
#X connect 34 0 26 0;
#X connect 35 0 40 0;
#X connect 36 0 37 1;
#X connect 37 0 39 0;
#X connect 38 0 43 0;
#X connect 39 0 22 0;
#X connect 39 0 23 0;
#X connect 40 0 41 0;
#X connect 41 0 37 0;
#X connect 42 0 38 0;
#X connect 43 0 35 0;
#X connect 44 0 36 0;
#X connect 45 0 1 0;
