#N canvas 0 0 1000 700 10;
#X obj 138 48 hsl 128 15 100 1000 0 0 stage/controlled_rhythm/tempo stage/controlled_rhythm/tempo BPM 10 8 0 10 #fcfcfc #000000 #000000 0 1;
#X obj 50 80 metro;
#X obj 50 110 counter 0 7;
#X obj 50 140 select 0 4;
#X obj 100 140 select 2 6;
#X obj 150 140 select 1 3 5 7;
#X obj 50 180 bng 15 250 50 0 kick kick KICK 17 7 0 10 #fcfcfc #000000 #000000;
#X obj 50 250 osc~ 50;
#X obj 80 250 osc~ 70;
#X obj 50 300 +~;
#X obj 50 330 *~ 0.8;
#X obj 50 360 vline~;
#X obj 50 390 *~;
#X obj 200 250 noise~;
#X obj 200 280 bandpass~ 200 10;
#X obj 200 310 *~ 0.6;
#X obj 200 340 vline~;
#X obj 200 370 *~;
#X obj 350 250 noise~;
#X obj 350 280 highpass~ 8000;
#X obj 350 310 *~ 0.3;
#X obj 350 340 vline~;
#X obj 350 370 *~;
#X obj 500 300 +~;
#X obj 530 300 +~;
#X obj 560 350 +~;
#X obj 600 50 hsl 128 15 0 1 0 0 stage/controlled_rhythm/master stage/controlled_rhythm/master MASTER 10 8 0 10 #fcfcfc #000000 #000000 0 1;
#X obj 560 400 *~;
#X obj 560 450 throw~ stage/controlled_rhythm/L;
#X obj 620 450 throw~ stage/controlled_rhythm/R;
#X msg 50 220 1 5 \, 0 150 5;
#X msg 200 220 1 2 \, 0 80 2;
#X msg 350 220 1 1 \, 0 30 1;
#X obj -67 8 tgl 25 0 stage/controlled_rhythm/start stage/controlled_rhythm/start empty 17 7 0 10 #e4e4e4 #4d4d4d #373737 0 1;
#X obj -150 60 r stage/controlled_rhythm/start;
#X obj -150 90 r stage/controlled_rhythm/tempo;
#X obj -150 120 r stage/controlled_rhythm/master;
#X connect 0 0 1 1;
#X connect 1 0 2 0;
#X connect 2 0 3 0;
#X connect 2 0 4 0;
#X connect 2 0 5 0;
#X connect 3 0 6 0;
#X connect 3 1 6 0;
#X connect 6 0 30 0;
#X connect 7 0 9 0;
#X connect 8 0 9 1;
#X connect 9 0 10 0;
#X connect 10 0 12 0;
#X connect 11 0 12 1;
#X connect 12 0 23 0;
#X connect 13 0 14 0;
#X connect 14 0 15 0;
#X connect 15 0 17 0;
#X connect 16 0 17 1;
#X connect 17 0 24 0;
#X connect 18 0 19 0;
#X connect 19 0 20 0;
#X connect 20 0 22 0;
#X connect 21 0 22 1;
#X connect 22 0 24 1;
#X connect 23 0 25 0;
#X connect 24 0 25 1;
#X connect 25 0 27 0;
#X connect 26 0 27 1;
#X connect 27 0 28 0;
#X connect 27 0 29 0;
#X connect 30 0 11 0;
#X connect 31 0 16 0;
#X connect 32 0 21 0;
#X connect 33 0 1 0;
#X connect 34 0 1 0;
#X connect 35 0 1 1;
#X connect 36 0 27 1;
