#N canvas 0 0 600 400 12;
#X obj 50 50 noise~;
#X obj 50 100 *~ 0.3;
#X obj 100 50 phasor~ 11025;
#X obj 100 100 *~ 0.1;
#X obj 150 50 metro 1000;
#X obj 150 100 random 100;
#X obj 150 150 < 2;
#X obj 150 200 select 1;
#X obj 150 250 noise~;
#X obj 150 300 *~ 0.2;
#X obj 200 50 phasor~ 22050;
#X obj 200 100 clip~ -0.8 0.8;
#X obj 200 150 *~ 1.5;
#X obj 200 200 clip~ -1 1;
#X obj 50 350 +~;
#X obj 50 400 +~;
#X obj 50 450 +~;
#X obj 50 500 *~ 0.25;
#X obj 50 550 outlet~;
#X obj 250 50 loadbang;
#X obj 250 100 metro 1000;
#X text 300 50 Digital noise;
#X text 300 70 Nyquist aliasing;
#X text 300 90 Random clicks/pops;
#X text 300 110 Harsh digital clipping;
#X connect 0 0 1 0;
#X connect 1 0 14 0;
#X connect 2 0 3 0;
#X connect 3 0 14 1;
#X connect 4 0 5 0;
#X connect 5 0 6 0;
#X connect 6 0 7 0;
#X connect 7 0 8 0;
#X connect 8 0 9 0;
#X connect 9 0 15 1;
#X connect 10 0 11 0;
#X connect 11 0 12 0;
#X connect 12 0 13 0;
#X connect 13 0 16 1;
#X connect 14 0 15 0;
#X connect 15 0 16 0;
#X connect 16 0 17 0;
#X connect 17 0 18 0;
#X connect 19 0 20 0;
#X connect 20 0 4 0;