#N canvas 0 0 600 400 12;
#X obj 50 50 phasor~ 50;
#X obj 50 100 *~ 10;
#X obj 100 100 +~ 1500;
#X obj 150 100 phasor~;
#X obj 150 150 *~ 0.2;
#X obj 200 50 noise~;
#X obj 200 100 *~ 0.25;
#X obj 250 50 phasor~ 15750;
#X obj 250 100 *~ 0.1;
#X obj 300 50 phasor~ 0.8;
#X obj 300 100 *~ 3;
#X obj 350 100 +~ 1500;
#X obj 400 100 phasor~;
#X obj 400 150 *~ 0.15;
#X obj 50 200 +~;
#X obj 50 250 +~;
#X obj 50 300 +~;
#X obj 50 350 *~ 0.2;
#X obj 50 400 outlet~;
#X obj 450 50 phasor~ 120;
#X obj 450 100 *~ 0.5;
#X obj 500 100 +~ 1;
#X obj 500 150 *~;
#X obj 50 175 +~;
#X text 550 50 Radio static base;
#X text 550 70 Interference modulation;
#X text 550 90 High frequency buzz;
#X text 550 110 AM radio interference;
#X text 550 130 Power line interference;
#X connect 0 0 1 0;
#X connect 1 0 2 0;
#X connect 2 0 3 0;
#X connect 3 0 4 0;
#X connect 4 0 14 0;
#X connect 5 0 22 0;
#X connect 6 0 14 1;
#X connect 7 0 8 0;
#X connect 8 0 15 1;
#X connect 9 0 10 0;
#X connect 10 0 11 0;
#X connect 11 0 12 0;
#X connect 12 0 13 0;
#X connect 13 0 16 1;
#X connect 14 0 23 0;
#X connect 15 0 16 0;
#X connect 16 0 17 0;
#X connect 17 0 18 0;
#X connect 19 0 20 0;
#X connect 20 0 21 0;
#X connect 21 0 22 1;
#X connect 22 0 15 0;
#X connect 23 0 15 0;