#N canvas 0 0 600 400 12;
#X obj 50 50 phasor~ 80;
#X obj 50 100 phasor~ 0.1;
#X obj 50 150 *~ 5;
#X obj 100 150 +~ 80;
#X obj 150 150 phasor~;
#X obj 150 200 *~ 0.2;
#X obj 200 50 noise~;
#X obj 200 100 phasor~ 0.05;
#X obj 200 150 *~ 0.3;
#X obj 250 150 +~ 1;
#X obj 250 200 *~;
#X obj 300 50 phasor~ 2400;
#X obj 300 100 metro 8000;
#X obj 300 150 random 1000;
#X obj 300 200 / 1000;
#X obj 300 250 line~;
#X obj 350 250 *~;
#X obj 50 300 +~;
#X obj 50 350 +~;
#X obj 50 400 *~ 0.12;
#X obj 50 450 outlet~;
#X obj 400 50 loadbang;
#X obj 400 100 metro 8000;
#X text 450 50 Distant traffic (modulated);
#X text 450 70 Wind noise (LFO controlled);
#X text 450 90 Occasional bird calls;
#X connect 0 0 5 0;
#X connect 1 0 2 0;
#X connect 2 0 3 0;
#X connect 3 0 4 0;
#X connect 4 0 5 0;
#X connect 5 0 17 0;
#X connect 6 0 10 0;
#X connect 7 0 8 0;
#X connect 8 0 9 0;
#X connect 9 0 10 1;
#X connect 10 0 17 1;
#X connect 11 0 16 0;
#X connect 12 0 13 0;
#X connect 13 0 14 0;
#X connect 14 0 15 0;
#X connect 15 0 16 1;
#X connect 16 0 18 1;
#X connect 17 0 18 0;
#X connect 18 0 19 0;
#X connect 19 0 20 0;
#X connect 21 0 22 0;
#X connect 22 0 12 0;