#N canvas 200 200 800 600 10;
#X obj 100 50 noise~;
#X obj 100 80 *~ 5;
#X obj 100 200 *~ 0.5;
#X obj 396 266 dac~;
#X obj 300 50 metro 100;
#X obj 300 80 bng 18 250 50 0 empty empty empty 0 -9 0 10 #fcfcfc #000000 #000000;
#X obj 300 110 random 2000;
#X obj 300 140 + 100;
#X obj 300 170 pack f 50;
#X obj 300 200 line~;
#X obj 500 50 receive~ noise_out;
#X obj 500 80 delread~ fb 500;
#X obj 500 110 *~ 0.8;
#X obj 500 140 +~;
#X obj 500 200 *~ 0.5;
#X obj 540 358 dac~;
#X obj 70 283 send~ noise_out;
#X obj 282 334 delwrite~ fb 500;
#X obj 274 20 tgl 25 0 empty empty empty 17 7 0 10 #e4e4e4 #4d4d4d #373737 0 1;
#X obj 100 170 clip~ -10 20;
#X obj 100 140 lop~;
#X obj 100 110 hip~ 10;
#X obj 500 170 clip~ -10 20;
#X connect 0 0 1 0;
#X connect 1 0 21 0;
#X connect 2 0 16 0;
#X connect 4 0 5 0;
#X connect 5 0 6 0;
#X connect 6 0 7 0;
#X connect 7 0 8 0;
#X connect 8 0 9 0;
#X connect 9 0 20 1;
#X connect 9 0 17 0;
#X connect 10 0 3 0;
#X connect 10 0 3 1;
#X connect 10 0 12 0;
#X connect 12 0 13 0;
#X connect 13 0 22 0;
#X connect 14 0 15 0;
#X connect 14 0 15 1;
#X connect 18 0 4 0;
#X connect 19 0 2 0;
#X connect 20 0 19 0;
#X connect 21 0 20 0;
#X connect 22 0 14 0;
