#N canvas 100 100 1200 800 10;

# Microphone Input and Feedback
#X obj 50 50 adc~;
#X obj 50 80 delwrite~ micfb 1000;
#X obj 50 110 delread~ micfb 50;
#X obj 50 140 *~ 0.7;
#X obj 50 170 clip~ -1 1;
#X obj 50 200 send~ mic_signal;

#X connect 0 0 1 0;
#X connect 1 0 2 0;
#X connect 2 0 3 0;
#X connect 3 0 4 0;
#X connect 4 0 5 0;

# RMS Analysis
#X obj 200 50 receive~ mic_signal;
#X obj 200 80 env~ 1024;
#X obj 200 110 snapshot~;
#X obj 200 140 metro 50;
#X obj 200 170 f;
#X obj 200 200 send rms_value;

#X connect 6 0 7 0;
#X connect 7 0 8 0;
#X connect 9 0 8 1;
#X connect 8 0 10 0;
#X connect 10 0 11 0;

# Random Oscillator Modulated by RMS
#X obj 400 50 noise~;
#X obj 400 80 *~ 1000;
#X obj 400 110 +~ 200;
#X obj 400 140 osc~;
#X obj 400 170 *~;
#X obj 400 200 send~ osc_signal;
#X obj 520 50 r rms_value;
#X obj 520 80 / 100;
#X obj 520 110 clip 0 1;
#X obj 520 140 * 0.35;
#X obj 520 170 + 0.05;
#X obj 520 200 sig~;

#X connect 12 0 13 0;
#X connect 13 0 14 0;
#X connect 14 0 15 0;
#X connect 15 0 16 0;
#X connect 16 0 17 0;
#X connect 18 0 19 0;
#X connect 19 0 20 0;
#X connect 20 0 21 0;
#X connect 21 0 22 0;
#X connect 22 0 23 0;
#X connect 23 0 16 1;

# Delay Modulation Based on RMS
#X obj 600 50 r rms_value;
#X obj 600 80 / 100;
#X obj 600 110 + 20;
#X obj 600 140 pack f 100;
#X obj 600 170 line;
#X obj 600 200 delread~ micfb;
#X obj 600 230 *~ 0.3;
#X obj 600 260 send~ delay_signal;

#X connect 24 0 25 0;
#X connect 25 0 26 0;
#X connect 26 0 27 0;
#X connect 27 0 28 0;
#X connect 28 0 29 0;
#X connect 29 0 30 0;
#X connect 30 0 31 0;

# Mixer and Output
#X obj 800 50 receive~ mic_signal;
#X obj 800 80 receive~ osc_signal;
#X obj 800 110 receive~ delay_signal;
#X obj 800 140 +~;
#X obj 800 170 +~;
#X obj 800 200 clip~ -1 1;
#X obj 800 230 *~ 0.5;
#X obj 800 260 dac~;

#X connect 32 0 35 0;
#X connect 33 0 35 1;
#X connect 35 0 36 0;
#X connect 34 0 36 1;
#X connect 36 0 37 0;
#X connect 37 0 38 0;
#X connect 38 0 39 0;
#X connect 38 0 39 1;

# Start the metro
#X obj 200 230 loadbang;
#X obj 200 260 bang;

#X connect 40 0 41 0;
#X connect 41 0 9 0;
