#N canvas 0 0 1400 900 12;
#X obj 50 50 bng 50 250 50 0 empty play-stop Play/Stop 17 7 0 12 #fcfcfc #000000 #000000;
#X obj 150 50 hradio 15 1 0 6 empty source-select empty 0 -8 0 12 #fcfcfc #000000 #000000 0;
#X text 150 30 Source Type;
#X text 150 75 Room;
#X text 185 75 Field;
#X text 215 75 Digital;
#X text 245 75 Machinery;
#X text 285 75 EM;
#X text 305 75 Resonant;
#X obj 350 50 bng 35 250 50 0 empty gen-new Generate 17 7 0 12 #fcfcfc #000000 #000000;
#X obj 50 150 switch~ 64;
#X obj 50 200 pd source-generator;
#X obj 50 300 hip~ 100;
#X obj 50 350 lop~ 10000;
#X obj 50 400 bp~ 2000 100;
#X obj 50 450 delwrite~ delay1 1000;
#X obj 50 500 delread~ delay1 200;
#X obj 150 500 *~ 0.15;
#X obj 50 550 +~;
#X obj 50 600 *~ 0.1;
#X obj 50 650 *~ 0.01;
#X obj 50 700 dac~;
#X obj 500 100 vsl 20 128 -60 0 0 0 master-gain empty Master_Gain -9 -9 0 12 #fcfcfc #000000 #000000 -20 1;
#X obj 550 100 vsl 20 128 20 2000 0 0 hp-freq empty HP_Freq -9 -9 0 12 #fcfcfc #000000 #000000 100 1;
#X obj 600 100 vsl 20 128 1000 20000 0 0 lp-freq empty LP_Freq -9 -9 0 12 #fcfcfc #000000 #000000 10000 1;
#X obj 650 100 vsl 20 128 100 15000 0 0 bp-freq empty BP_Center -9 -9 0 12 #fcfcfc #000000 #000000 2000 1;
#X obj 700 100 vsl 20 128 50 5000 0 0 bp-q empty BP_Width -9 -9 0 12 #fcfcfc #000000 #000000 100 1;
#X obj 750 100 vsl 20 128 50 1000 0 0 delay-time empty Delay_Time -9 -9 0 12 #fcfcfc #000000 #000000 200 1;
#X obj 800 100 vsl 20 128 0 50 0 0 delay-fb empty Delay_FB -9 -9 0 12 #fcfcfc #000000 #000000 15 1;
#X obj 500 270 tgl 15 0 hp-enable empty HP_Enable 17 7 0 12 #fcfcfc #000000 #000000 0 1;
#X obj 550 270 tgl 15 0 lp-enable empty LP_Enable 17 7 0 12 #fcfcfc #000000 #000000 0 1;
#X obj 600 270 tgl 15 0 bp-enable empty BP_Enable 17 7 0 12 #fcfcfc #000000 #000000 0 1;
#X obj 650 270 tgl 15 0 spatial-enable empty Spatial_Enable 17 7 0 12 #fcfcfc #000000 #000000 0 1;
#X obj 150 200 receive source-select;
#X obj 50 250 receive gen-new;
#X obj 100 300 receive hp-freq;
#X obj 100 350 receive lp-freq;
#X obj 100 400 receive bp-freq;
#X obj 200 400 receive bp-q;
#X obj 100 500 receive delay-time;
#X obj 200 500 receive delay-fb;
#X obj 100 600 receive master-gain;
#X obj 250 300 receive hp-enable;
#X obj 250 350 receive lp-enable;
#X obj 250 400 receive bp-enable;
#X obj 250 550 receive spatial-enable;
#X msg 100 150 \; pd dsp 1;
#X msg 150 150 \; pd dsp 0;
#X obj 200 300 spigot~;
#X obj 200 350 spigot~;
#X obj 200 400 spigot~;
#X obj 200 550 spigot~;
#X text 500 50 Controls;
#X text 500 290 Enable Filters;
#X text 900 100 Lowercase Technique Guide:;
#X text 900 120 • Keep master gain very low (-40dB or lower);
#X text 900 140 • Use extreme filtering to isolate frequency bands;
#X text 900 160 • Focus on subtlety over obvious effects;
#X text 900 180 • Embrace the space between sounds;
#X text 900 200 • Listen in a quiet environment;
#X text 900 220 • Use good monitoring equipment;
#X text 900 240 • Allow time for ears to adjust;
#X connect 0 0 10 0;
#X connect 0 0 45 0;
#X connect 0 0 46 0;
#X connect 1 0 32 0;
#X connect 9 0 33 0;
#X connect 11 0 12 0;
#X connect 11 0 47 0;
#X connect 12 0 48 0;
#X connect 13 0 49 0;
#X connect 14 0 15 0;
#X connect 14 0 18 0;
#X connect 16 0 17 0;
#X connect 17 0 18 1;
#X connect 18 0 50 0;
#X connect 19 0 20 0;
#X connect 20 0 21 0;
#X connect 20 0 21 1;
#X connect 22 0 40 0;
#X connect 23 0 34 0;
#X connect 24 0 35 0;
#X connect 25 0 36 0;
#X connect 26 0 37 0;
#X connect 27 0 38 0;
#X connect 28 0 39 0;
#X connect 29 0 41 0;
#X connect 30 0 42 0;
#X connect 31 0 43 0;
#X connect 32 0 44 0;
#X connect 32 0 11 1;
#X connect 33 0 11 0;
#X connect 34 0 12 1;
#X connect 35 0 13 1;
#X connect 36 0 14 1;
#X connect 37 0 14 2;
#X connect 38 0 16 1;
#X connect 39 0 17 1;
#X connect 40 0 20 1;
#X connect 41 0 47 1;
#X connect 42 0 48 1;
#X connect 43 0 49 1;
#X connect 44 0 50 1;
#X connect 47 0 13 0;
#X connect 48 0 14 0;
#X connect 49 0 15 0;
#X connect 50 0 19 0;
#N canvas 450 22 800 600 source-generator 0;
#X obj 50 50 inlet;
#X obj 150 50 inlet;
#X obj 50 100 route 0 1 2 3 4 5;
#X obj 50 150 pd room-tone;
#X obj 150 150 pd field-recording;
#X obj 250 150 pd digital-artifacts;
#X obj 350 150 pd machinery;
#X obj 450 150 pd electromagnetic;
#X obj 550 150 pd resonant-objects;
#X obj 50 300 selector~ 6 1;
#X obj 50 350 outlet~;
#X obj 150 100 t b b b b b b;
#X connect 0 0 2 0;
#X connect 1 0 11 0;
#X connect 2 0 3 0;
#X connect 2 0 9 0;
#X connect 2 1 4 0;
#X connect 2 1 9 0;
#X connect 2 2 5 0;
#X connect 2 2 9 0;
#X connect 2 3 6 0;
#X connect 2 3 9 0;
#X connect 2 4 7 0;
#X connect 2 4 9 0;
#X connect 2 5 8 0;
#X connect 2 5 9 0;
#X connect 3 0 9 1;
#X connect 4 0 9 2;
#X connect 5 0 9 3;
#X connect 6 0 9 4;
#X connect 7 0 9 5;
#X connect 8 0 9 6;
#X connect 9 0 10 0;
#X connect 11 0 3 0;
#X connect 11 1 4 0;
#X connect 11 2 5 0;
#X connect 11 3 6 0;
#X connect 11 4 7 0;
#X connect 11 5 8 0;
#N canvas 450 22 600 400 room-tone 0;
#X obj 50 50 phasor~ 60;
#X obj 100 50 phasor~ 120;
#X obj 150 50 noise~;
#X obj 50 100 *~ 0.3;
#X obj 100 100 *~ 0.1;
#X obj 150 100 *~ 0.2;
#X obj 50 150 +~;
#X obj 50 200 +~;
#X obj 50 250 *~ 0.15;
#X obj 50 300 outlet~;
#X obj 200 50 phasor~ 0.1;
#X obj 200 100 *~ 5;
#X obj 250 100 +~ 60;
#X obj 300 100 phasor~;
#X obj 300 150 *~ 0.05;
#X obj 50 175 +~;
#X obj 400 50 inlet;
#X connect 0 0 3 0;
#X connect 1 0 4 0;
#X connect 2 0 5 0;
#X connect 3 0 6 0;
#X connect 4 0 6 1;
#X connect 5 0 7 1;
#X connect 6 0 7 0;
#X connect 7 0 15 0;
#X connect 8 0 9 0;
#X connect 10 0 11 0;
#X connect 11 0 12 0;
#X connect 12 0 13 0;
#X connect 13 0 14 0;
#X connect 14 0 15 1;
#X connect 15 0 8 0;
#X restore 50 150 pd room-tone;
#N canvas 450 22 600 400 field-recording 0;
#X obj 50 50 phasor~ 80;
#X obj 50 100 phasor~ 0.1;
#X obj 50 150 *~ 5;
#X obj 100 150 +~ 80;
#X obj 150 150 phasor~;
#X obj 150 200 *~ 0.2;
#X obj 200 50 noise~;
#X obj 200 100 phasor~ 0.05;
#X obj 200 150 *~ 0.3;
#X obj 250 150 +~ 1;
#X obj 250 200 *~;
#X obj 300 50 phasor~ 2400;
#X obj 300 100 metro 8000;
#X obj 300 150 random 1000;
#X obj 300 200 / 1000;
#X obj 300 250 pack f 100;
#X obj 300 300 line~;
#X obj 350 300 *~;
#X obj 50 300 +~;
#X obj 50 350 +~;
#X obj 50 400 *~ 0.12;
#X obj 50 450 outlet~;
#X obj 400 50 loadbang;
#X obj 400 100 metro 8000;
#X obj 450 50 inlet;
#X connect 0 0 5 0;
#X connect 1 0 2 0;
#X connect 2 0 3 0;
#X connect 3 0 4 0;
#X connect 4 0 5 0;
#X connect 5 0 18 0;
#X connect 6 0 10 0;
#X connect 7 0 8 0;
#X connect 8 0 9 0;
#X connect 9 0 10 1;
#X connect 10 0 18 1;
#X connect 11 0 17 0;
#X connect 12 0 13 0;
#X connect 13 0 14 0;
#X connect 14 0 15 0;
#X connect 15 0 16 0;
#X connect 16 0 17 1;
#X connect 17 0 19 1;
#X connect 18 0 19 0;
#X connect 19 0 20 0;
#X connect 20 0 21 0;
#X connect 22 0 23 0;
#X connect 23 0 12 0;
#X restore 150 150 pd field-recording;
#N canvas 450 22 600 400 digital-artifacts 0;
#X obj 50 50 noise~;
#X obj 50 100 *~ 0.3;
#X obj 100 50 phasor~ 11025;
#X obj 100 100 *~ 0.1;
#X obj 150 50 metro 1000;
#X obj 150 100 random 100;
#X obj 150 150 < 2;
#X obj 150 200 select 1;
#X obj 150 250 noise~;
#X obj 150 300 *~ 0.2;
#X obj 200 50 phasor~ 22050;
#X obj 200 100 clip~ -0.8 0.8;
#X obj 200 150 *~ 1.5;
#X obj 200 200 clip~ -1 1;
#X obj 50 350 +~;
#X obj 50 400 +~;
#X obj 50 450 +~;
#X obj 50 500 *~ 0.25;
#X obj 50 550 outlet~;
#X obj 250 50 loadbang;
#X obj 250 100 metro 1000;
#X obj 300 50 inlet;
#X connect 0 0 1 0;
#X connect 1 0 14 0;
#X connect 2 0 3 0;
#X connect 3 0 14 1;
#X connect 4 0 5 0;
#X connect 5 0 6 0;
#X connect 6 0 7 0;
#X connect 7 0 8 0;
#X connect 8 0 9 0;
#X connect 9 0 15 1;
#X connect 10 0 11 0;
#X connect 11 0 12 0;
#X connect 12 0 13 0;
#X connect 13 0 16 1;
#X connect 14 0 15 0;
#X connect 15 0 16 0;
#X connect 16 0 17 0;
#X connect 17 0 18 0;
#X connect 19 0 20 0;
#X connect 20 0 4 0;
#X restore 250 150 pd digital-artifacts;
#N canvas 450 22 600 400 machinery 0;
#X obj 50 50 phasor~ 45;
#X obj 50 100 *~ 0.25;
#X obj 100 50 phasor~ 0.3;
#X obj 100 100 *~ 2;
#X obj 150 100 +~ 180;
#X obj 200 100 phasor~;
#X obj 200 150 *~ 0.15;
#X obj 250 50 noise~;
#X obj 250 100 phasor~ 12;
#X obj 250 150 *~ 0.5;
#X obj 300 150 +~ 1;
#X obj 300 200 *~;
#X obj 300 250 *~ 0.1;
#X obj 50 200 +~;
#X obj 50 250 +~;
#X obj 50 300 *~ 0.18;
#X obj 50 350 outlet~;
#X obj 350 50 phasor~ 0.2;
#X obj 350 100 *~ 10;
#X obj 400 100 +~ 45;
#X obj 450 100 phasor~;
#X obj 450 150 *~ 0.08;
#X obj 50 175 +~;
#X obj 500 50 inlet;
#X connect 0 0 1 0;
#X connect 1 0 13 0;
#X connect 2 0 3 0;
#X connect 3 0 4 0;
#X connect 4 0 5 0;
#X connect 5 0 6 0;
#X connect 6 0 13 1;
#X connect 7 0 11 0;
#X connect 8 0 9 0;
#X connect 9 0 10 0;
#X connect 10 0 11 1;
#X connect 11 0 12 0;
#X connect 12 0 14 1;
#X connect 13 0 22 0;
#X connect 14 0 15 0;
#X connect 15 0 16 0;
#X connect 17 0 18 0;
#X connect 18 0 19 0;
#X connect 19 0 20 0;
#X connect 20 0 21 0;
#X connect 21 0 22 1;
#X connect 22 0 14 0;
#X restore 350 150 pd machinery;
#N canvas 450 22 600 400 electromagnetic 0;
#X obj 50 50 phasor~ 50;
#X obj 50 100 *~ 10;
#X obj 100 100 +~ 1500;
#X obj 150 100 phasor~;
#X obj 150 150 *~ 0.2;
#X obj 200 50 noise~;
#X obj 200 100 *~ 0.25;
#X obj 250 50 phasor~ 15750;
#X obj 250 100 *~ 0.1;
#X obj 300 50 phasor~ 0.8;
#X obj 300 100 *~ 3;
#X obj 350 100 +~ 1500;
#X obj 400 100 phasor~;
#X obj 400 150 *~ 0.15;
#X obj 50 200 +~;
#X obj 50 250 +~;
#X obj 50 300 +~;
#X obj 50 350 *~ 0.2;
#X obj 50 400 outlet~;
#X obj 450 50 phasor~ 120;
#X obj 450 100 *~ 0.5;
#X obj 500 100 +~ 1;
#X obj 500 150 *~;
#X obj 50 175 +~;
#X obj 550 50 inlet;
#X connect 0 0 1 0;
#X connect 1 0 2 0;
#X connect 2 0 3 0;
#X connect 3 0 4 0;
#X connect 4 0 14 0;
#X connect 5 0 22 0;
#X connect 6 0 14 1;
#X connect 7 0 8 0;
#X connect 8 0 15 1;
#X connect 9 0 10 0;
#X connect 10 0 11 0;
#X connect 11 0 12 0;
#X connect 12 0 13 0;
#X connect 13 0 16 1;
#X connect 14 0 23 0;
#X connect 15 0 16 0;
#X connect 16 0 17 0;
#X connect 17 0 18 0;
#X connect 19 0 20 0;
#X connect 20 0 21 0;
#X connect 21 0 22 1;
#X connect 22 0 15 0;
#X connect 23 0 15 0;
#X restore 450 150 pd electromagnetic;
#N canvas 450 22 600 400 resonant-objects 0;
#X obj 50 50 phasor~ 0.1;
#X obj 50 100 *~ 20;
#X obj 100 100 +~ 220;
#X obj 150 100 phasor~;
#X obj 150 150 *~ 0.2;
#X obj 200 100 * 3.14159;
#X obj 250 100 phasor~;
#X obj 250 150 *~ 0.1;
#X obj 300 50 noise~;
#X obj 300 100 *~ 0.05;
#X obj 350 50 metro 4000;
#X obj 350 100 random 1000;
#X obj 350 150 / 1000;
#X obj 350 200 pack f 100;
#X obj 350 250 line~;
#X obj 400 250 *~;
#X obj 50 200 +~;
#X obj 50 250 +~;
#X obj 50 300 +~;
#X obj 50 350 *~ 0.15;
#X obj 50 400 outlet~;
#X obj 450 50 loadbang;
#X obj 450 100 metro 4000;
#X obj 500 50 phasor~ 0.05;
#X obj 500 100 *~ 40;
#X obj 550 100 +~ 220;
#X obj 600 100 phasor~;
#X obj 600 150 *~ 0.08;
#X obj 50 175 +~;
#X obj 650 50 inlet;
#X connect 0 0 1 0;
#X connect 1 0 2 0;
#X connect 2 0 3 0;
#X connect 2 0 5 0;
#X connect 3 0 4 0;
#X connect 4 0 16 0;
#X connect 5 0 6 0;
#X connect 6 0 7 0;
#X connect 7 0 16 1;
#X connect 8 0 9 0;
#X connect 9 0 17 1;
#X connect 10 0 11 0;
#X connect 11 0 12 0;
#X connect 12 0 13 0;
#X connect 13 0 14 0;
#X connect 14 0 15 1;
#X connect 15 0 18 1;
#X connect 16 0 28 0;
#X connect 17 0 18 0;
#X connect 18 0 19 0;
#X connect 19 0 20 0;
#X connect 21 0 22 0;
#X connect 22 0 10 0;
#X connect 23 0 24 0;
#X connect 24 0 25 0;
#X connect 25 0 26 0;
#X connect 26 0 27 0;
#X connect 27 0 28 1;
#X connect 28 0 17 0;
#X connect 4 0 15 0;
#X restore 550 150 pd resonant-objects;
#X restore 50 200 pd source-generator;