#N canvas 0 0 1200 800 12;
#X obj 50 50 bng 50 250 50 0 empty play-stop Play/Stop 17 7 0 12 #fcfcfc #000000 #000000;
#X obj 150 50 hradio 15 1 0 6 empty source-select empty 0 -8 0 12 #fcfcfc #000000 #000000 0;
#X text 150 30 Source Type;
#X text 170 65 Room;
#X text 185 65 Field;
#X text 200 65 Digital;
#X text 215 65 Machinery;
#X text 230 65 EM;
#X text 245 65 Resonant;
#X obj 300 50 bng 35 250 50 0 empty gen-new Generate 17 7 0 12 #fcfcfc #000000 #000000;
#X obj 50 150 source-generator;
#X obj 50 250 hip~ 100;
#X obj 50 300 lop~ 10000;
#X obj 50 350 bp~ 2000 100;
#X obj 50 400 delwrite~ delay1 1000;
#X obj 50 450 delread~ delay1 200;
#X obj 150 450 *~ 0.15;
#X obj 50 500 +~;
#X obj 50 550 *~ 0.1;
#X obj 50 600 *~ 0.01;
#X obj 50 650 dac~;
#X obj 400 150 vsl 20 128 -60 0 0 0 master-gain empty Master_Gain -9 -9 0 12 #fcfcfc #000000 #000000 0 1;
#X obj 450 150 vsl 20 128 20 2000 0 0 hp-freq empty HP_Freq -9 -9 0 12 #fcfcfc #000000 #000000 0 1;
#X obj 500 150 vsl 20 128 1000 20000 0 0 lp-freq empty LP_Freq -9 -9 0 12 #fcfcfc #000000 #000000 0 1;
#X obj 550 150 vsl 20 128 100 15000 0 0 bp-freq empty BP_Center -9 -9 0 12 #fcfcfc #000000 #000000 0 1;
#X obj 600 150 vsl 20 128 50 5000 0 0 bp-q empty BP_Width -9 -9 0 12 #fcfcfc #000000 #000000 0 1;
#X obj 650 150 vsl 20 128 50 1000 0 0 delay-time empty Delay_Time -9 -9 0 12 #fcfcfc #000000 #000000 0 1;
#X obj 700 150 vsl 20 128 0 50 0 0 delay-fb empty Delay_FB -9 -9 0 12 #fcfcfc #000000 #000000 0 1;
#X obj 400 320 tgl 15 0 hp-enable empty HP_Enable 17 7 0 12 #fcfcfc #000000 #000000 0 1;
#X obj 450 320 tgl 15 0 lp-enable empty LP_Enable 17 7 0 12 #fcfcfc #000000 #000000 0 1;
#X obj 500 320 tgl 15 0 bp-enable empty BP_Enable 17 7 0 12 #fcfcfc #000000 #000000 0 1;
#X obj 550 320 tgl 15 0 spatial-enable empty Spatial_Enable 17 7 0 12 #fcfcfc #000000 #000000 0 1;
#X obj 150 150 receive source-select;
#X obj 50 200 receive gen-new;
#X obj 100 250 receive hp-freq;
#X obj 100 300 receive lp-freq;
#X obj 100 350 receive bp-freq;
#X obj 200 350 receive bp-q;
#X obj 100 450 receive delay-time;
#X obj 200 450 receive delay-fb;
#X obj 100 550 receive master-gain;
#X obj 250 250 receive hp-enable;
#X obj 250 300 receive lp-enable;
#X obj 250 350 receive bp-enable;
#X obj 250 500 receive spatial-enable;
#X obj 50 100 switch~;
#X msg 100 100 \; pd dsp 1;
#X msg 150 100 \; pd dsp 0;
#X connect 0 0 46 0;
#X connect 0 0 45 0;
#X connect 1 0 32 0;
#X connect 9 0 33 0;
#X connect 10 0 11 0;
#X connect 11 0 12 0;
#X connect 12 0 13 0;
#X connect 13 0 14 0;
#X connect 13 0 17 0;
#X connect 15 0 16 0;
#X connect 16 0 17 1;
#X connect 17 0 18 0;
#X connect 18 0 19 0;
#X connect 19 0 20 0;
#X connect 19 0 20 1;
#X connect 21 0 40 0;
#X connect 22 0 34 0;
#X connect 23 0 35 0;
#X connect 24 0 36 0;
#X connect 25 0 37 0;
#X connect 26 0 38 0;
#X connect 27 0 39 0;
#X connect 28 0 41 0;
#X connect 29 0 42 0;
#X connect 30 0 43 0;
#X connect 31 0 44 0;
#X connect 32 0 10 1;
#X connect 33 0 10 0;
#X connect 34 0 11 1;
#X connect 35 0 12 1;
#X connect 36 0 13 1;
#X connect 37 0 13 2;
#X connect 38 0 15 1;
#X connect 39 0 16 1;
#X connect 40 0 19 1;
#X connect 41 0 11 2;
#X connect 42 0 12 2;
#X connect 43 0 13 3;
#X connect 44 0 18 1;
#X connect 45 0 46 0;