#N canvas 0 0 600 400 12;
#X obj 50 50 phasor~ 45;
#X obj 50 100 *~ 0.25;
#X obj 100 50 phasor~ 0.3;
#X obj 100 100 *~ 2;
#X obj 150 100 +~ 180;
#X obj 200 100 phasor~;
#X obj 200 150 *~ 0.15;
#X obj 250 50 noise~;
#X obj 250 100 phasor~ 12;
#X obj 250 150 *~ 0.5;
#X obj 300 150 +~ 1;
#X obj 300 200 *~;
#X obj 300 250 *~ 0.1;
#X obj 50 200 +~;
#X obj 50 250 +~;
#X obj 50 300 *~ 0.18;
#X obj 50 350 outlet~;
#X obj 350 50 phasor~ 0.2;
#X obj 350 100 *~ 10;
#X obj 400 100 +~ 45;
#X obj 450 100 phasor~;
#X obj 450 150 *~ 0.08;
#X obj 50 175 +~;
#X text 500 50 Motor hum (45Hz);
#X text 500 70 Ventilation (180Hz + modulation);
#X text 500 90 Mechanical rattle;
#X text 500 110 Motor speed variation;
#X connect 0 0 1 0;
#X connect 1 0 13 0;
#X connect 2 0 3 0;
#X connect 3 0 4 0;
#X connect 4 0 5 0;
#X connect 5 0 6 0;
#X connect 6 0 13 1;
#X connect 7 0 11 0;
#X connect 8 0 9 0;
#X connect 9 0 10 0;
#X connect 10 0 11 1;
#X connect 11 0 12 0;
#X connect 12 0 14 1;
#X connect 13 0 22 0;
#X connect 14 0 15 0;
#X connect 15 0 16 0;
#X connect 17 0 18 0;
#X connect 18 0 19 0;
#X connect 19 0 20 0;
#X connect 20 0 21 0;
#X connect 21 0 22 1;
#X connect 22 0 14 0;