#N canvas 827 239 527 327 12;
#X obj 120 246 osc~;
#X floatatom -283 204 5 0 0 0 - - - 0;
#X obj 174 202 osc~;
#X obj 171 246 *~ 0.5;
#X floatatom -158 170 5 0 0 0 - - - 0;
#X obj 232 212 osc~;
#X obj 229 256 *~ 0.5;
#X floatatom -8 145 5 0 0 0 - - - 0;
#X obj 304 219 osc~;
#X obj 301 263 *~ 0.5;
#X floatatom 95 147 5 0 0 0 - - - 0;
#X obj 135 304 free.rev~ 0.7 0.5 0 1;
#X obj 451 279 osc~ 220;
#X obj 576 380 osc~ 440;
#X obj 418 393 +~;
#X obj 669 432 *~ 100;
#X obj 669 482 +~ 220;
#X obj 593 252 osc~ 0.07;
#X obj 591 285 *~ 50;
#X obj 590 340 +~ 440;
#X obj 451 475 free.rev~ 0.5 0.9;
#X obj 672 252 osc~ 0.5;
#X obj 161 547 crackle~;
#X obj 755 113 phasor~ 5;
#X obj 755 151 bandpass~ 20 1 1;
#X obj 755 182 palette/chorus.m~;
#A saved 2.90478 13.7311 1;
#X obj 755 328 palette/rm.m~;
#A saved 0;
#X obj 863 391 vsl 17 128 0 127 0 0 stage/new_drone/master stage/new_drone/master empty 0 -9 0 10 #e4e4e4 #4d4d4d #373737 0 1;
#X obj 1074 198 click~;
#X obj 1074 113 metro 20;
#X obj 1074 159 bng 25 250 50 0 empty empty empty 17 7 0 10 #e4e4e4 #4d4d4d #373737;
#X obj 1074 73 tgl 25 0 stage/new_drone/click stage/new_drone/click empty 17 7 0 10 #e4e4e4 #4d4d4d #373737 0 1;
#X obj 1074 250 bandpass~ 30 2 0.5;
#X obj 1128 362 delay~ 123321 20;
#X obj 755 503 *~ 0.5;
#X obj 161 584 lowpass~ 300 100 200;
#X obj 451 429 *~ 0.2;
#X obj 161 618 *~ 0.9;
#X obj 129 353 *~ 0.5;
#X obj 519 596 throw~ stage/new_drone/L;
#X obj 569 596 throw~ stage/new_drone/R;
#X obj 780 646 throw~ stage/new_drone/L;
#X obj 830 646 throw~ stage/new_drone/R;
#X obj 221 433 throw~ stage/new_drone/L;
#X obj 271 433 throw~ stage/new_drone/R;
#X obj 258 721 throw~ stage/new_drone/L;
#X obj 308 721 throw~ stage/new_drone/R;
#X obj -262 -75 counter 0 15;
#X obj -262 -45 select 0 1 2 3 4 5 6 7 8 9 10 11 12 13 14 15;
#X obj -212 -15 f 36;
#X obj -172 -15 f 43;
#X obj -132 -15 f 48;
#X obj -92 -15 f 52;
#X obj -52 -15 f 55;
#X obj -12 -15 f 60;
#X obj 28 -15 f 64;
#X obj 68 -15 f 67;
#X obj 108 -15 f 72;
#X obj 148 -15 f 76;
#X obj 188 -15 f 79;
#X obj 228 -15 f 84;
#X obj 268 -15 f 88;
#X obj 308 -15 f 91;
#X obj 348 -15 f 96;
#X obj 388 -15 f 100;
#X obj -212 35 mtof;
#X obj -172 35 mtof;
#X obj -132 35 mtof;
#X obj -92 35 mtof;
#X obj -50 30 mtof;
#X obj -12 35 mtof;
#X obj 28 35 mtof;
#X obj 68 35 mtof;
#X obj 108 35 mtof;
#X obj 148 35 mtof;
#X obj 188 35 mtof;
#X obj 228 35 mtof;
#X obj 268 35 mtof;
#X obj 308 35 mtof;
#X obj 348 35 mtof;
#X obj 388 35 mtof;
#X obj -134 -195 tgl 25 0 stage/new_drone/start stage/new_drone/start empty 17 7 0 10 #e4e4e4 #4d4d4d #373737 0 1;
#X obj -260 -147 metro 200;
#X obj -261 -118 bng 25 250 50 0 empty empty empty 17 7 0 10 #e4e4e4 #4d4d4d #373737;
#X obj -320 -230 r stage/new_drone/start;
#X obj 940 60 r stage/new_drone/click;
#X obj 900 420 r stage/new_drone/master;
#X obj -132 -242 loadbang;
#X connect 0 0 11 0;
#X connect 1 0 0 0;
#X connect 2 0 3 0;
#X connect 3 0 11 0;
#X connect 4 0 2 0;
#X connect 5 0 6 0;
#X connect 6 0 11 0;
#X connect 7 0 5 0;
#X connect 8 0 9 0;
#X connect 9 0 11 0;
#X connect 10 0 8 0;
#X connect 11 0 38 0;
#X connect 12 0 14 0;
#X connect 13 0 14 1;
#X connect 14 0 36 0;
#X connect 15 0 16 0;
#X connect 16 0 20 0;
#X connect 17 0 18 0;
#X connect 18 0 19 0;
#X connect 19 0 13 1;
#X connect 20 0 39 0;
#X connect 20 1 40 0;
#X connect 21 0 15 0;
#X connect 22 0 35 0;
#X connect 23 0 24 0;
#X connect 24 0 25 0;
#X connect 25 0 26 0;
#X connect 26 0 34 0;
#X connect 27 0 34 1;
#X connect 28 0 32 0;
#X connect 29 0 30 0;
#X connect 30 0 28 0;
#X connect 31 0 29 0;
#X connect 32 0 33 0;
#X connect 33 0 34 0;
#X connect 34 0 41 0;
#X connect 34 0 42 0;
#X connect 35 0 37 0;
#X connect 36 0 20 0;
#X connect 37 0 45 0;
#X connect 37 0 46 0;
#X connect 38 0 43 0;
#X connect 38 0 44 0;
#X connect 47 0 48 0;
#X connect 48 0 49 0;
#X connect 48 1 50 0;
#X connect 48 2 51 0;
#X connect 48 3 52 0;
#X connect 48 4 53 0;
#X connect 48 5 54 0;
#X connect 48 6 55 0;
#X connect 48 7 56 0;
#X connect 48 8 57 0;
#X connect 48 9 58 0;
#X connect 48 10 59 0;
#X connect 48 11 60 0;
#X connect 48 12 61 0;
#X connect 48 13 62 0;
#X connect 48 14 63 0;
#X connect 48 15 64 0;
#X connect 49 0 65 0;
#X connect 50 0 66 0;
#X connect 51 0 67 0;
#X connect 52 0 68 0;
#X connect 53 0 69 0;
#X connect 54 0 70 0;
#X connect 55 0 71 0;
#X connect 56 0 72 0;
#X connect 57 0 73 0;
#X connect 58 0 74 0;
#X connect 59 0 75 0;
#X connect 60 0 76 0;
#X connect 61 0 77 0;
#X connect 62 0 78 0;
#X connect 63 0 79 0;
#X connect 64 0 80 0;
#X connect 65 0 1 0;
#X connect 66 0 4 0;
#X connect 67 0 7 0;
#X connect 68 0 10 0;
#X connect 69 0 1 0;
#X connect 70 0 4 0;
#X connect 71 0 7 0;
#X connect 81 0 82 0;
#X connect 82 0 83 0;
#X connect 83 0 47 0;
#X connect 84 0 82 0;
#X connect 85 0 29 0;
#X connect 86 0 34 1;
#X connect 87 0 81 0;
