#N canvas 0 0 600 400 12;
#X obj 50 50 phasor~ 0.1;
#X obj 50 100 *~ 20;
#X obj 100 100 +~ 220;
#X obj 150 100 phasor~;
#X obj 150 150 *~ 0.2;
#X obj 200 100 *~ 3.14159;
#X obj 250 100 phasor~;
#X obj 250 150 *~ 0.1;
#X obj 300 50 noise~;
#X obj 300 100 *~ 0.05;
#X obj 350 50 metro 4000;
#X obj 350 100 random 1000;
#X obj 350 150 / 1000;
#X obj 350 200 pack f 100;
#X obj 350 250 line~;
#X obj 400 250 *~;
#X obj 50 200 +~;
#X obj 50 250 +~;
#X obj 50 300 +~;
#X obj 50 350 *~ 0.15;
#X obj 50 400 outlet~;
#X obj 450 50 loadbang;
#X obj 450 100 metro 4000;
#X obj 500 50 phasor~ 0.05;
#X obj 500 100 *~ 40;
#X obj 550 100 +~ 220;
#X obj 600 100 phasor~;
#X obj 600 150 *~ 0.08;
#X obj 50 175 +~;
#X text 650 50 Fundamental frequency (220Hz + LFO);
#X text 650 70 Harmonic (3.14159 ratio);
#X text 650 90 Body resonance noise;
#X text 650 110 Decay envelope;
#X text 650 130 Frequency drift;
#X connect 0 0 1 0;
#X connect 1 0 2 0;
#X connect 2 0 3 0;
#X connect 2 0 5 0;
#X connect 3 0 4 0;
#X connect 4 0 16 0;
#X connect 5 0 6 0;
#X connect 6 0 7 0;
#X connect 7 0 16 1;
#X connect 8 0 9 0;
#X connect 9 0 17 1;
#X connect 10 0 11 0;
#X connect 11 0 12 0;
#X connect 12 0 13 0;
#X connect 13 0 14 0;
#X connect 14 0 15 1;
#X connect 15 0 18 1;
#X connect 16 0 28 0;
#X connect 17 0 18 0;
#X connect 18 0 19 0;
#X connect 19 0 20 0;
#X connect 21 0 22 0;
#X connect 22 0 10 0;
#X connect 23 0 24 0;
#X connect 24 0 25 0;
#X connect 25 0 26 0;
#X connect 26 0 27 0;
#X connect 27 0 28 1;
#X connect 28 0 17 0;
#X connect 4 0 15 0;
