#N canvas 0 0 1200 800 10;
#X obj 50 50 loadbang;
#X obj 50 80 metro 8000;
#X obj 50 110 counter 0 7;
#X obj 50 140 select 0 1 2 3 4 5 6 7;
#X obj 100 170 f 48;
#X obj 140 170 f 52;
#X obj 180 170 f 55;
#X obj 220 170 f 60;
#X obj 260 170 f 64;
#X obj 300 170 f 67;
#X obj 340 170 f 72;
#X obj 380 170 f 76;
#X obj 100 220 mtof;
#X obj 140 220 mtof;
#X obj 180 220 mtof;
#X obj 220 220 mtof;
#X obj 260 220 mtof;
#X obj 300 220 mtof;
#X obj 340 220 mtof;
#X obj 380 220 mtof;
#X obj 50 300 osc~;
#X obj 80 300 osc~;
#X obj 110 300 osc~;
#X obj 140 300 osc~;
#X obj 50 350 *~ 0;
#X obj 80 350 *~ 0;
#X obj 110 350 *~ 0;
#X obj 140 350 *~ 0;
#X obj 200 300 brown~;
#X obj 230 300 crackle~ 1.2;
#X obj 260 300 dust~ 0.5;
#X obj 200 350 lowpass~ 300;
#X obj 230 350 bandpass~ 800 40;
#X obj 260 350 highpass~ 1200;
#X obj 200 400 *~ 0.03;
#X obj 230 400 *~ 0.02;
#X obj 260 400 *~ 0.01;
#X obj 50 450 +~;
#X obj 100 450 +~;
#X obj 150 450 +~;
#X obj 200 500 +~;
#X obj 250 500 +~;
#X obj 300 550 +~;
#X obj 400 300 osc~ 0.03;
#X obj 430 300 osc~ 0.07;
#X obj 400 350 *~ 3;
#X obj 430 350 *~ 5;
#X obj 400 400 +~ 1;
#X obj 430 400 +~ 1;
#X obj 50 700 metro 12000;
#X obj 50 730 counter 0 3;
#X obj 50 760 select 0 1 2 3;
#X obj 100 790 f 0.3;
#X obj 140 790 f 0.15;
#X obj 180 790 f 0.25;
#X obj 220 790 f 0.1;
#X obj 700 400 lowpass~ 600;
#X obj 800 450 free.rev~ 0.8 0.9;
#X obj 800 500 *~ 0.6;
#X obj 50 900 osc~ 0.01;
#X obj 100 900 *~ 0.3;
#X obj 150 900 +~ 0.7;
#X obj 900 500 *~;
#X obj 900 550 throw~ stage/rich/L;
#X obj 960 550 throw~ stage/rich/R;
#X obj 200 50 r stage/rich/start;
#X connect 0 0 1 0;
#X connect 0 0 49 0;
#X connect 1 0 2 0;
#X connect 2 0 3 0;
#X connect 3 0 4 0;
#X connect 3 1 5 0;
#X connect 3 2 6 0;
#X connect 3 3 7 0;
#X connect 3 4 8 0;
#X connect 3 5 9 0;
#X connect 3 6 10 0;
#X connect 3 7 11 0;
#X connect 4 0 12 0;
#X connect 5 0 13 0;
#X connect 6 0 14 0;
#X connect 7 0 15 0;
#X connect 8 0 16 0;
#X connect 9 0 17 0;
#X connect 10 0 18 0;
#X connect 11 0 19 0;
#X connect 12 0 20 0;
#X connect 13 0 21 0;
#X connect 14 0 22 0;
#X connect 15 0 23 0;
#X connect 20 0 24 0;
#X connect 21 0 25 0;
#X connect 22 0 26 0;
#X connect 23 0 27 0;
#X connect 28 0 31 0;
#X connect 29 0 32 0;
#X connect 30 0 33 0;
#X connect 31 0 34 0;
#X connect 32 0 35 0;
#X connect 33 0 36 0;
#X connect 24 0 37 0;
#X connect 25 0 37 1;
#X connect 37 0 38 0;
#X connect 26 0 38 1;
#X connect 38 0 39 0;
#X connect 27 0 39 1;
#X connect 34 0 40 0;
#X connect 35 0 40 1;
#X connect 40 0 41 0;
#X connect 36 0 41 1;
#X connect 39 0 42 0;
#X connect 41 0 42 1;
#X connect 43 0 45 0;
#X connect 44 0 46 0;
#X connect 45 0 47 0;
#X connect 46 0 48 0;
#X connect 42 0 56 0;
#X connect 56 0 57 0;
#X connect 57 0 58 0;
#X connect 49 0 50 0;
#X connect 50 0 51 0;
#X connect 51 0 52 0;
#X connect 51 1 53 0;
#X connect 51 2 54 0;
#X connect 51 3 55 0;
#X connect 52 0 24 1;
#X connect 53 0 25 1;
#X connect 54 0 26 1;
#X connect 55 0 27 1;
#X connect 47 0 24 1;
#X connect 48 0 25 1;
#X connect 59 0 60 0;
#X connect 60 0 61 0;
#X connect 58 0 62 0;
#X connect 61 0 62 1;
#X connect 62 0 63 0;
#X connect 62 0 64 0;
#X connect 65 0 1 0;
#X connect 65 0 49 0;
