#N canvas 0 0 600 400 12;
#X obj 50 50 phasor~ 60;
#X obj 100 50 phasor~ 120;
#X obj 150 50 noise~;
#X obj 50 100 *~ 0.3;
#X obj 100 100 *~ 0.1;
#X obj 150 100 *~ 0.2;
#X obj 50 150 +~;
#X obj 50 200 +~;
#X obj 50 250 *~ 0.15;
#X obj 50 300 outlet~;
#X obj 200 50 phasor~ 0.1;
#X obj 200 100 *~ 5;
#X obj 250 100 +~ 60;
#X obj 300 100 phasor~;
#X obj 300 150 *~ 0.05;
#X obj 50 175 +~;
#X text 350 50 60Hz electrical hum;
#X text 350 70 120Hz harmonic;
#X text 350 90 Air flow noise;
#X text 350 110 Room resonance modulation;
#X connect 0 0 3 0;
#X connect 1 0 4 0;
#X connect 2 0 5 0;
#X connect 3 0 6 0;
#X connect 4 0 6 1;
#X connect 5 0 7 1;
#X connect 6 0 7 0;
#X connect 7 0 15 0;
#X connect 8 0 9 0;
#X connect 10 0 11 0;
#X connect 11 0 12 0;
#X connect 12 0 13 0;
#X connect 13 0 14 0;
#X connect 14 0 15 1;
#X connect 15 0 8 0;