#N canvas 0 0 800 600 12;
#X obj 50 50 inlet;
#X obj 50 100 route 0 1 2 3 4 5;
#X obj 50 150 room-tone;
#X obj 100 150 field-recording;
#X obj 150 150 digital-artifacts;
#X obj 200 150 machinery;
#X obj 250 150 electromagnetic;
#X obj 300 150 resonant-objects;
#X obj 50 250 outlet~;
#X obj 50 200 selector~ 6 1;
#X connect 0 0 1 0;
#X connect 1 0 2 0;
#X connect 1 1 3 0;
#X connect 1 2 4 0;
#X connect 1 3 5 0;
#X connect 1 4 6 0;
#X connect 1 5 7 0;
#X connect 2 0 9 1;
#X connect 3 0 9 2;
#X connect 4 0 9 3;
#X connect 5 0 9 4;
#X connect 6 0 9 5;
#X connect 7 0 9 6;
#X connect 9 0 8 0;
#X connect 1 0 9 0;
#X connect 1 1 9 0;
#X connect 1 2 9 0;
#X connect 1 3 9 0;
#X connect 1 4 9 0;
#X connect 1 5 9 0;