#N canvas 827 239 527 327 12;
#X obj 112 184 noise~;
#X obj 105 430 throw~ stage/noise/L;
#X obj 155 430 throw~ stage/noise/R;
#X obj 138 214 lop~ 100;
#X floatatom 172 184 5 0 0 0 - - - 0;
#X obj 176 19 vsl 17 128 0 127 0 0 stage/noise/cutoff stage/noise/cutoff empty 0 -9 0 10 #e4e4e4 #4d4d4d #373737 0 1;
#X obj 428 49 metro 80;
#X obj 336 111 noise~;
#X obj 335 155 phasor~;
#X obj 335 214 +~ 2000;
#X obj 335 252 lop~ -100;
#X obj 335 295 +~ 1500;
#X obj 325 338 *~ 0.15;
#X obj 428 214 1 0 20;
#X obj 431 260 noise~;
#X obj 555 43 tgl 25 0 stage/noise/start stage/noise/start empty 17 7 0 10 #e4e4e4 #4d4d4d #373737 0 1;
#X obj 487 105 bng 25 250 50 0 empty empty empty 17 7 0 10 #e4e4e4 #4d4d4d #373737;
#X obj 428 155 line~;
#X obj 430 10 r stage/noise/start;
#X obj 220 180 r stage/noise/cutoff;
#X connect 0 0 3 0;
#X connect 3 0 1 0;
#X connect 3 0 2 0;
#X connect 4 0 3 1;
#X connect 5 0 4 0;
#X connect 6 0 16 0;
#X connect 7 0 8 0;
#X connect 8 0 9 0;
#X connect 9 0 10 0;
#X connect 10 0 11 0;
#X connect 11 0 12 0;
#X connect 12 0 1 0;
#X connect 12 0 2 0;
#X connect 13 0 14 0;
#X connect 15 0 6 0;
#X connect 17 0 13 0;
#X connect 18 0 6 0;
#X connect 19 0 3 1;
