#N canvas 100 100 1000 700 10;
#X obj 40 40 declare -path patches;
#X obj 40 80 loadbang;
#X msg 40 120 ; stage/controlled_rhythm/start 1; stage/new_drone/start 1; stage/new_drone/click 0; stage/rich/start 1; stage/controlled_rhythm/tempo 400; stage/controlled_rhythm/master 0.7; stage/new_drone/master 0.5; stage/mix/controlled 0.7; stage/mix/new_drone 0.6; stage/mix/rich 0.7; stage/master/level 0.8;
#X obj 40 200 patches/controlled_rhythm_stage;
#X obj 320 200 patches/new_drone_stage;
#X obj 600 200 patches/rich_ambient_stage;
#X text 40 170 Controlled Rhythm;
#X text 320 170 New Drone;
#X text 600 170 Rich Ambient;
#X obj 40 260 tgl 25 0 stage/controlled_rhythm/start stage/controlled_rhythm/start empty 0 -6 0 10 #e4e4e4 #4d4d4d #373737 0 1;
#X obj 80 260 hsl 140 15 100 1000 0 0 stage/controlled_rhythm/tempo stage/controlled_rhythm/tempo tempo 10 8 0 10 #fcfcfc #000000 #000000 0 1;
#X obj 80 290 hsl 140 15 0 1 0 0 stage/controlled_rhythm/master stage/controlled_rhythm/master local 10 8 0 10 #fcfcfc #000000 #000000 0 1;
#X obj 80 320 hsl 140 15 0 1 0 0 stage/mix/controlled stage/mix/controlled mix 10 8 0 10 #fcfcfc #000000 #000000 0 1;
#X obj 320 260 tgl 25 0 stage/new_drone/start stage/new_drone/start empty 0 -6 0 10 #e4e4e4 #4d4d4d #373737 0 1;
#X obj 360 260 tgl 20 0 stage/new_drone/click stage/new_drone/click click 0 -6 0 10 #e4e4e4 #4d4d4d #373737 0 1;
#X obj 390 260 hsl 140 15 0 1 0 0 stage/new_drone/master stage/new_drone/master local 10 8 0 10 #fcfcfc #000000 #000000 0 1;
#X obj 390 290 hsl 140 15 0 1 0 0 stage/mix/new_drone stage/mix/new_drone mix 10 8 0 10 #fcfcfc #000000 #000000 0 1;
#X obj 600 260 tgl 25 0 stage/rich/start stage/rich/start empty 0 -6 0 10 #e4e4e4 #4d4d4d #373737 0 1;
#X obj 640 260 hsl 140 15 0 1 0 0 stage/mix/rich stage/mix/rich mix 10 8 0 10 #fcfcfc #000000 #000000 0 1;
#X obj 40 380 hsl 220 15 0 1 0 0 stage/master/level stage/master/level master 10 8 0 10 #fcfcfc #000000 #000000 0 1;
#N canvas 200 200 640 380 mixdown 0;
#X obj 40 30 r stage/mix/controlled;
#X obj 40 60 sig~ 0;
#X obj 140 30 catch~ stage/controlled_rhythm/L;
#X obj 140 60 *~;
#X obj 230 30 catch~ stage/controlled_rhythm/R;
#X obj 230 60 *~;
#X obj 40 120 r stage/mix/new_drone;
#X obj 40 150 sig~ 0;
#X obj 140 120 catch~ stage/new_drone/L;
#X obj 140 150 *~;
#X obj 230 120 catch~ stage/new_drone/R;
#X obj 230 150 *~;
#X obj 40 210 r stage/mix/rich;
#X obj 40 240 sig~ 0;
#X obj 140 210 catch~ stage/rich/L;
#X obj 140 240 *~;
#X obj 230 210 catch~ stage/rich/R;
#X obj 230 240 *~;
#X obj 340 90 +~;
#X obj 340 120 +~;
#X obj 430 90 +~;
#X obj 430 120 +~;
#X obj 340 150 s~ stage/mix_bus/L;
#X obj 430 150 s~ stage/mix_bus/R;
#X obj 520 210 r stage/master/level;
#X obj 520 240 sig~ 0;
#X obj 340 180 *~;
#X obj 430 180 *~;
#X obj 340 210 outlet~;
#X obj 430 210 outlet~;
#X connect 0 0 1 0;
#X connect 1 0 3 1;
#X connect 1 0 5 1;
#X connect 2 0 3 0;
#X connect 3 0 18 0;
#X connect 4 0 5 0;
#X connect 5 0 20 0;
#X connect 6 0 7 0;
#X connect 7 0 9 1;
#X connect 7 0 11 1;
#X connect 8 0 9 0;
#X connect 9 0 18 1;
#X connect 10 0 11 0;
#X connect 11 0 20 1;
#X connect 12 0 13 0;
#X connect 13 0 15 1;
#X connect 13 0 17 1;
#X connect 14 0 15 0;
#X connect 15 0 19 1;
#X connect 16 0 17 0;
#X connect 17 0 21 1;
#X connect 18 0 19 0;
#X connect 19 0 22 0;
#X connect 19 0 26 0;
#X connect 20 0 21 0;
#X connect 21 0 23 0;
#X connect 21 0 27 0;
#X connect 24 0 25 0;
#X connect 25 0 26 1;
#X connect 25 0 27 1;
#X connect 26 0 28 0;
#X connect 27 0 29 0;
#X restore 40 420 pd mixdown;
#X obj 260 420 dac~;
#X connect 1 0 2 0;
#X connect 20 0 21 0;
#X connect 20 1 21 1;
