#N canvas 0 0 1400 900 10;
#X obj 30 30 declare -path patches;
#X obj 30 70 loadbang;
#X msg 30 110 ; stage/controlled_rhythm/start 1; stage/ambient/start 1; stage/new_drone/start 1; stage/new_drone/click 0; stage/noise/start 0; stage/rich/start 1; stage/controlled_rhythm/tempo 400; stage/controlled_rhythm/master 0.7; stage/new_drone/master 0.5; stage/noise/cutoff 80; stage/mix/controlled 0.7; stage/mix/ambient 0.6; stage/mix/new_drone 0.6; stage/mix/noise 0.3; stage/mix/rich 0.7; stage/master/level 0.8;
#X obj 30 160 patches/controlled_rhythm_stage;
#X obj 220 160 patches/ambient_stage;
#X obj 410 160 patches/new_drone_stage;
#X obj 600 160 patches/some_new_shit_stage;
#X obj 790 160 patches/rich_ambient_stage;
#X obj 30 220 tgl 25 0 stage/controlled_rhythm/start stage/controlled_rhythm/start empty 0 -6 0 10 #e4e4e4 #4d4d4d #373737 0 1;
#X obj 70 220 hsl 128 15 100 1000 0 0 stage/controlled_rhythm/tempo stage/controlled_rhythm/tempo tempo 10 8 0 10 #fcfcfc #000000 #000000 0 1;
#X obj 70 250 hsl 128 15 0 1 0 0 stage/controlled_rhythm/master stage/controlled_rhythm/master local 10 8 0 10 #fcfcfc #000000 #000000 0 1;
#X obj 70 280 hsl 128 15 0 1 0 0 stage/mix/controlled stage/mix/controlled mix 10 8 0 10 #fcfcfc #000000 #000000 0 1;
#X obj 220 220 tgl 25 0 stage/ambient/start stage/ambient/start empty 0 -6 0 10 #e4e4e4 #4d4d4d #373737 0 1;
#X obj 260 220 hsl 128 15 0 1 0 0 stage/mix/ambient stage/mix/ambient mix 10 8 0 10 #fcfcfc #000000 #000000 0 1;
#X obj 410 220 tgl 25 0 stage/new_drone/start stage/new_drone/start empty 0 -6 0 10 #e4e4e4 #4d4d4d #373737 0 1;
#X obj 450 220 tgl 20 0 stage/new_drone/click stage/new_drone/click click 0 -6 0 10 #e4e4e4 #4d4d4d #373737 0 1;
#X obj 480 220 hsl 128 15 0 1 0 0 stage/new_drone/master stage/new_drone/master local 10 8 0 10 #fcfcfc #000000 #000000 0 1;
#X obj 480 250 hsl 128 15 0 1 0 0 stage/mix/new_drone stage/mix/new_drone mix 10 8 0 10 #fcfcfc #000000 #000000 0 1;
#X obj 600 220 tgl 25 0 stage/noise/start stage/noise/start empty 0 -6 0 10 #e4e4e4 #4d4d4d #373737 0 1;
#X obj 640 220 hsl 128 15 0 127 0 0 stage/noise/cutoff stage/noise/cutoff cutoff 10 8 0 10 #fcfcfc #000000 #000000 0 1;
#X obj 640 250 hsl 128 15 0 1 0 0 stage/mix/noise stage/mix/noise mix 10 8 0 10 #fcfcfc #000000 #000000 0 1;
#X obj 790 220 tgl 25 0 stage/rich/start stage/rich/start empty 0 -6 0 10 #e4e4e4 #4d4d4d #373737 0 1;
#X obj 830 220 hsl 128 15 0 1 0 0 stage/mix/rich stage/mix/rich mix 10 8 0 10 #fcfcfc #000000 #000000 0 1;
#X obj 1030 260 hsl 128 15 0 1 0 0 stage/master/level stage/master/level master 10 8 0 10 #fcfcfc #000000 #000000 0 1;
#X obj -10 360 r stage/mix/controlled;
#X obj -10 390 sig~ 0;
#X obj 30 360 catch~ stage/controlled_rhythm/L;
#X obj 30 390 *~;
#X obj 30 420 throw~ stage/mix_bus/L;
#X obj 150 360 catch~ stage/controlled_rhythm/R;
#X obj 150 390 *~;
#X obj 150 420 throw~ stage/mix_bus/R;
#X obj 180 360 r stage/mix/ambient;
#X obj 180 390 sig~ 0;
#X obj 220 360 catch~ stage/ambient/L;
#X obj 220 390 *~;
#X obj 220 420 throw~ stage/mix_bus/L;
#X obj 340 360 catch~ stage/ambient/R;
#X obj 340 390 *~;
#X obj 340 420 throw~ stage/mix_bus/R;
#X obj 370 360 r stage/mix/new_drone;
#X obj 370 390 sig~ 0;
#X obj 410 360 catch~ stage/new_drone/L;
#X obj 410 390 *~;
#X obj 410 420 throw~ stage/mix_bus/L;
#X obj 530 360 catch~ stage/new_drone/R;
#X obj 530 390 *~;
#X obj 530 420 throw~ stage/mix_bus/R;
#X obj 560 360 r stage/mix/noise;
#X obj 560 390 sig~ 0;
#X obj 600 360 catch~ stage/noise/L;
#X obj 600 390 *~;
#X obj 600 420 throw~ stage/mix_bus/L;
#X obj 720 360 catch~ stage/noise/R;
#X obj 720 390 *~;
#X obj 720 420 throw~ stage/mix_bus/R;
#X obj 750 360 r stage/mix/rich;
#X obj 750 390 sig~ 0;
#X obj 790 360 catch~ stage/rich/L;
#X obj 790 390 *~;
#X obj 790 420 throw~ stage/mix_bus/L;
#X obj 910 360 catch~ stage/rich/R;
#X obj 910 390 *~;
#X obj 910 420 throw~ stage/mix_bus/R;
#X obj 950 320 r stage/master/level;
#X obj 950 350 sig~ 0;
#X obj 1030 320 catch~ stage/mix_bus/L;
#X obj 1030 350 *~;
#X obj 1150 320 catch~ stage/mix_bus/R;
#X obj 1150 350 *~;
#X obj 1090 400 dac~;
#X connect 1 0 2 0;
#X connect 24 0 25 0;
#X connect 25 0 27 1;
#X connect 25 0 30 1;
#X connect 26 0 27 0;
#X connect 27 0 28 0;
#X connect 29 0 30 0;
#X connect 30 0 31 0;
#X connect 32 0 33 0;
#X connect 33 0 35 1;
#X connect 33 0 38 1;
#X connect 34 0 35 0;
#X connect 35 0 36 0;
#X connect 37 0 38 0;
#X connect 38 0 39 0;
#X connect 40 0 41 0;
#X connect 41 0 43 1;
#X connect 41 0 46 1;
#X connect 42 0 43 0;
#X connect 43 0 44 0;
#X connect 45 0 46 0;
#X connect 46 0 47 0;
#X connect 48 0 49 0;
#X connect 49 0 51 1;
#X connect 49 0 54 1;
#X connect 50 0 51 0;
#X connect 51 0 52 0;
#X connect 53 0 54 0;
#X connect 54 0 55 0;
#X connect 56 0 57 0;
#X connect 57 0 59 1;
#X connect 57 0 62 1;
#X connect 58 0 59 0;
#X connect 59 0 60 0;
#X connect 61 0 62 0;
#X connect 62 0 63 0;
#X connect 64 0 65 0;
#X connect 65 0 67 1;
#X connect 65 0 69 1;
#X connect 66 0 67 0;
#X connect 68 0 69 0;
#X connect 67 0 70 0;
#X connect 69 0 70 1;
